<svg width="593" height="647" viewBox="0 0 593 647" fill="none" xmlns="http://www.w3.org/2000/svg">
<path fill-rule="evenodd" clip-rule="evenodd" d="M-4.73828 646.516L-4.73828 505.744C4.25808 508.151 13.6017 509.406 23.075 509.42H291.432V533.953C291.421 564.062 279.464 592.936 258.185 614.238C238.222 634.222 211.584 646.009 183.503 647.424H9.42297C4.69006 647.26 -0.0323663 646.957 -4.73828 646.516ZM287.544 0.551758C329.016 4.61778 368.286 21.891 399.424 50.0875C435.327 82.5995 457.848 127.308 462.602 175.51C467.357 223.712 454.006 271.959 425.147 310.859C411.997 328.586 396.055 343.794 378.101 355.989H592.262L512.708 432.923L591.786 509.421H291.909V388.434L291.75 388.461L291.433 246.184C291.402 217.548 280.026 190.091 259.796 169.824C239.566 149.557 212.131 138.131 183.495 138.047H-4.73828V0.551758H287.544ZM68.2505 279.888C68.2426 265.131 72.6115 250.704 80.8048 238.431C88.9981 226.159 100.647 216.592 114.279 210.941C127.91 205.291 142.912 203.81 157.385 206.687C171.858 209.564 185.153 216.669 195.587 227.103C206.021 237.538 213.126 250.832 216.003 265.305C218.88 279.779 217.399 294.78 211.749 308.411C206.098 322.043 196.531 333.692 184.259 341.885C171.986 350.079 157.559 354.448 142.803 354.44C123.03 354.44 104.067 346.585 90.0862 332.604C76.1049 318.623 68.2505 299.66 68.2505 279.888Z" fill="white"/>
</svg>
