<svg width="20" height="20" viewBox="0 0 20 20" fill="none" xmlns="http://www.w3.org/2000/svg">
<g clip-path="url(#clip0_1099_5260)">
<path d="M14.6771 12.9096C15.6612 11.5656 16.2499 9.91474 16.2499 8.12511C16.2499 3.64514 12.6049 0.00012207 8.12494 0.00012207C3.64498 0.00012207 0 3.64514 0 8.12511C0 12.6051 3.64502 16.2501 8.12498 16.2501C9.91462 16.2501 11.5656 15.6613 12.9096 14.6772L18.2324 20L20 18.2324C20 18.2324 14.6771 12.9096 14.6771 12.9096ZM8.12498 13.7501C5.02318 13.7501 2.50001 11.2269 2.50001 8.12511C2.50001 5.0233 5.02318 2.50013 8.12498 2.50013C11.2268 2.50013 13.75 5.0233 13.75 8.12511C13.75 11.2269 11.2267 13.7501 8.12498 13.7501Z" fill="#9EA1A2"/>
</g>
<defs>
<clipPath id="clip0_1099_5260">
<rect width="20" height="20" fill="white"/>
</clipPath>
</defs>
</svg>
