<svg width="21" height="20" viewBox="0 0 21 20" fill="none" xmlns="http://www.w3.org/2000/svg">
<path d="M10.5 0C6.50601 0 3.25671 3.2493 3.25671 7.2432C3.25671 12.1998 9.73871 19.4763 10.0147 19.7836C10.2739 20.0723 10.7265 20.0718 10.9852 19.7836C11.2612 19.4763 17.7432 12.1998 17.7432 7.2432C17.7431 3.2493 14.4939 0 10.5 0ZM10.5 10.8875C8.4905 10.8875 6.85574 9.25266 6.85574 7.2432C6.85574 5.23375 8.49054 3.59899 10.5 3.59899C12.5094 3.59899 14.1441 5.23379 14.1441 7.24324C14.1441 9.2527 12.5094 10.8875 10.5 10.8875Z" fill="#9EA1A2"/>
</svg>
